<svg width="20" height="23" viewBox="0 0 20 23" fill="none" xmlns="http://www.w3.org/2000/svg">
<path d="M19.4643 5.53564H0.535714C0.239866 5.53564 0 5.29578 0 4.99993V3.57136C0 3.27551 0.239866 3.03564 0.535714 3.03564H19.4643C19.7601 3.03564 20 3.27551 20 3.57136V4.99993C20 5.29578 19.7601 5.53564 19.4643 5.53564ZM19.4643 12.6785H0.535714C0.239866 12.6785 0 12.4386 0 12.1428V10.7142C0 10.4184 0.239866 10.1785 0.535714 10.1785H19.4643C19.7601 10.1785 20 10.4184 20 10.7142V12.1428C20 12.4386 19.7601 12.6785 19.4643 12.6785ZM19.4643 19.8214H0.535714C0.239866 19.8214 0 19.5815 0 19.2856V17.8571C0 17.5612 0.239866 17.3214 0.535714 17.3214H19.4643C19.7601 17.3214 20 17.5612 20 17.8571V19.2856C20 19.5815 19.7601 19.8214 19.4643 19.8214Z" fill="black"/>
</svg>
